<svg
                        
                        xmlns="http://www.w3.org/2000/svg"
                version="1.1"
                  width="18px"
                          height="18px"
                          viewBox="0 0 18 18"
                          className="mr-3"
                        >
                          <g
                            id="Page-1"
                            stroke="none"
                            strokeWidth="1"
                            fill="none"
                            fillRule="evenodd"
                          >
                            <g id="upload" fillRule="nonzero" fill="#000000">
                              <path
                                d="M6.1869863,8.86879795 C6.38630137,9.08516624 6.70684932,9.08516624 6.90616438,8.86879795 L9.98424658,5.51969309 L9.98424658,14.1514066 C9.98424658,14.4575448 10.2123288,14.7038363 10.4917808,14.7038363 L12.5239726,14.7038363 C12.8034247,14.7038363 13.0315068,14.455243 13.0315068,14.1514066 L13.0315068,5.74757033 L15.9,8.86879795 C16.0993151,9.08516624 16.419863,9.08516624 16.6191781,8.86879795 L17.8232877,7.55677749 C18.0226027,7.34040921 18.0226027,6.99053708 17.8232877,6.7741688 L11.7616438,0.177237852 C11.5623288,-0.0391304348 11.2417808,-0.0391304348 11.0424658,0.177237852 L4.98082192,6.7741688 C4.78150685,6.99053708 4.78150685,7.34040921 4.98082192,7.55677749 L6.1869863,8.86879795 Z M13.5719178,13.3849105 L13.5719178,14.5657289 C13.5719178,14.9409207 13.2719178,15.2516624 12.8938356,15.2516624 L10.1917808,15.2516624 C9.81369863,15.2516624 9.51369863,14.9432225 9.51369863,14.5657289 L9.51369863,13.3849105 L0.0102739726,13.3849105 L0.0102739726,17.9907928 L17.989726,17.9907928 L17.989726,13.3849105 L13.5719178,13.3849105 Z M2.19246575,16.5199488 C1.77328767,16.5199488 1.43219178,16.1516624 1.43219178,15.6936061 C1.43219178,15.2309463 1.77328767,14.8603581 2.19246575,14.8603581 C2.61164384,14.8603581 2.95273973,15.2286445 2.95273973,15.6936061 C2.95273973,16.1516624 2.61164384,16.5199488 2.19246575,16.5199488 L2.19246575,16.5199488 Z M4.90068493,16.5199488 C4.48150685,16.5199488 4.14041096,16.1516624 4.14041096,15.6936061 C4.14041096,15.2309463 4.48150685,14.8603581 4.90068493,14.8603581 C5.3260274,14.8603581 5.66712329,15.2286445 5.66712329,15.6936061 C5.66712329,16.1516624 5.3260274,16.5199488 4.90068493,16.5199488 Z"
                                id="Shape"
                              />
                            </g>
                          </g>
                        </svg>