<svg version="1.1" id="Layer_1" xmlns="http://www.w3.org/2000/svg" xmlns:xlink="http://www.w3.org/1999/xlink" x="0px" y="0px"
              width="18px" height="18px" viewBox="0 0 18 18" style="enable-background:new 0 0 18 18;" xml:space="preserve">
           
           <g>
             <path fill="#69951a" stroke="#69951a" stroke-width="0.3" stroke-miterlimit="10" class="st0" d="M1.4,17.8c-0.2-0.1-0.4-0.1-0.6-0.3c-0.4-0.2-0.6-0.6-0.6-1.1c0-0.9,0-1.8,0-2.7c0.1-1.4,0.7-2.6,1.6-3.7
               c1-1.1,2.2-1.9,3.6-2.4c0.1-0.1,0.2,0,0.3,0.1C6,7.8,6.1,7.9,6.3,8.1C5.7,8.3,5.2,8.5,4.7,8.7c-1.9,0.9-3.1,2.4-3.6,4.4
               C1,13.5,0.9,14,0.9,14.4c0,0.6,0,1.2,0,1.9c0,0.5,0.3,0.8,0.8,0.8c4.9,0,9.7,0,14.6,0c0.5,0,0.8-0.3,0.8-0.8c0-0.8,0-1.6,0-2.4
               c-0.1-1.6-0.8-2.9-2-4c-0.9-0.8-1.9-1.4-3.1-1.7c-0.1,0-0.1,0-0.2-0.1c0,0,0,0,0,0c0.2-0.2,0.4-0.3,0.6-0.5c0,0,0.1,0,0.1,0
               c2.5,0.9,4.2,2.4,5.1,4.9c0.2,0.6,0.3,1.2,0.3,1.9c0,0.6,0,1.3,0,1.9c0,0.8-0.4,1.3-1.1,1.5c0,0,0,0-0.1,0
               C11.6,17.8,6.5,17.8,1.4,17.8z"/>
             <path fill="#69951a" stroke="#69951a" stroke-width="0.3" stroke-miterlimit="10" class="st0" d="M9,8.2C6.8,8.2,5,6.4,5,4.2c0-2.2,1.9-4,4.1-4c2.2,0,4.1,1.8,4.1,4C13.1,6.4,11.2,8.2,9,8.2z M9,0.9
               c-1.9,0-3.4,1.5-3.4,3.3C5.7,6,7.2,7.5,9,7.5c1.8,0,3.4-1.5,3.4-3.3C12.4,2.4,10.9,0.9,9,0.9z"/>
             <path fill="#69951a" stroke="#69951a" stroke-width="0.3" stroke-miterlimit="10" class="st0" d="M9.3,8.9c0.2,0,0.5-0.1,0.7-0.1c0.1,0.4,0.1,0.8,0.2,1.2c0.2,0.9,0.3,1.9,0.5,2.8c0.1,0.4,0,0.7-0.3,1
               c-0.3,0.2-0.6,0.5-0.8,0.7c-0.3,0.3-0.8,0.3-1.2,0c-0.3-0.2-0.6-0.5-0.8-0.7c-0.3-0.2-0.4-0.6-0.3-0.9c0.2-1.3,0.4-2.6,0.6-3.9
               c0,0,0-0.1,0-0.1c0.2,0,0.4,0.1,0.7,0.1c0,0.1,0,0.2,0,0.3c-0.2,1.2-0.4,2.4-0.6,3.7c0,0.2,0,0.4,0.2,0.5c0.2,0.2,0.4,0.4,0.7,0.6
               C9,14,9.1,14,9.2,13.9c0.2-0.2,0.4-0.4,0.7-0.6c0.2-0.1,0.2-0.3,0.2-0.5C9.8,11.5,9.6,10.2,9.3,8.9z"/>
           </g>
           </svg>