<svg xmlns="http://www.w3.org/2000/svg" width="32.389" height="32.389" viewBox="0 0 32.389 32.389">
  <g id="Group_581" data-name="Group 581" transform="translate(-238 -514.611)">
    <circle id="Ellipse_262" data-name="Ellipse 262" cx="16.194" cy="16.194" r="16.194" transform="translate(238 514.611)" fill="#fff"/>
    <g id="iHVwgM.tif" transform="translate(245.529 521.352)">
      <g id="Group_17" data-name="Group 17">
        <path id="Path_11" data-name="Path 11" d="M-236.389,41.02c1.263,0,2.527.007,3.79,0,.348,0,.551.1.592.472.349,3.155-.284,6-2.648,8.278a7.972,7.972,0,0,1-4.546,2.127,9.035,9.035,0,0,1-7.624-2.208,8.726,8.726,0,0,1-3.069-7.953,8.839,8.839,0,0,1,6.415-7.77,8.723,8.723,0,0,1,8.467,1.577c.488.382.484.408.049.844-.652.654-1.312,1.3-1.955,1.962-.211.218-.359.226-.608.033a5.359,5.359,0,0,0-8.523,3.266,5.582,5.582,0,0,0,2.361,5.759,5.6,5.6,0,0,0,6.186-.059,4.2,4.2,0,0,0,1.593-2.2c.131-.379.052-.533-.372-.528-1.279.014-2.559-.013-3.838.014-.486.01-.663-.142-.641-.637.035-.776.034-1.555,0-2.331-.021-.483.131-.66.63-.648C-238.884,41.039-237.636,41.02-236.389,41.02Z" transform="translate(249.977 -33.484)" fill="#ef402f"/>
      </g>
    </g>
  </g>
</svg>
