<svg xmlns="http://www.w3.org/2000/svg" width="22.493" height="22.565" viewBox="0 0 22.493 22.565">
  <path id="Path_951" data-name="Path 951" d="M-52.807-675.608h-.459a3.041,3.041,0,0,1-1.18-.846c-1.718-1.733-3.447-3.454-5.163-5.189-.208-.211-.344-.265-.62-.081a8.546,8.546,0,0,1-3.911,1.394,8.926,8.926,0,0,1-9.62-6.83A6.577,6.577,0,0,0-74-688.236v-1.973c.12-.134.09-.31.116-.465a8.938,8.938,0,0,1,10.036-7.412,8.961,8.961,0,0,1,6.395,13.512c-.334.551-.334.551.133,1.02,1.777,1.782,3.56,3.558,5.33,5.348a1.478,1.478,0,0,1-.7,2.544A.651.651,0,0,0-52.807-675.608Zm-5.447-13.6a6.838,6.838,0,0,0-6.808-6.854,6.835,6.835,0,0,0-6.838,6.824,6.837,6.837,0,0,0,6.807,6.855A6.839,6.839,0,0,0-58.254-689.208Z" transform="translate(74 698.172)" fill="#ee252f"/>
</svg>
